<svg width="32" height="32" viewBox="0 0 32 32" fill="none" xmlns="http://www.w3.org/2000/svg">
  <!-- Background circle with gradient -->
  <defs>
    <linearGradient id="bgGradient" x1="0%" y1="0%" x2="100%" y2="100%">
      <stop offset="0%" style="stop-color:#616B53;stop-opacity:1" />
      <stop offset="100%" style="stop-color:#4A5440;stop-opacity:1" />
    </linearGradient>
  </defs>
  
  <!-- Background circle -->
  <circle cx="16" cy="16" r="15" fill="url(#bgGradient)" stroke="#3A4230" stroke-width="1"/>
  
  <!-- Main flower petals -->
  <path d="M16 6C18.5 6 20.5 8 20.5 10.5C20.5 13 18.5 15 16 15C13.5 15 11.5 13 11.5 10.5C11.5 8 13.5 6 16 6Z" fill="#E2E5DA"/>
  <path d="M16 17C18.5 17 20.5 19 20.5 21.5C20.5 24 18.5 26 16 26C13.5 26 11.5 24 11.5 21.5C11.5 19 13.5 17 16 17Z" fill="#E2E5DA"/>
  <path d="M6 16C6 18.5 8 20.5 10.5 20.5C13 20.5 15 18.5 15 16C15 13.5 13 11.5 10.5 11.5C8 11.5 6 13.5 6 16Z" fill="#E2E5DA"/>
  <path d="M17 16C17 18.5 19 20.5 21.5 20.5C24 20.5 26 18.5 26 16C26 13.5 24 11.5 21.5 11.5C19 11.5 17 13.5 17 16Z" fill="#E2E5DA"/>
  
  <!-- Secondary flower petals (smaller) -->
  <path d="M16 9C17.5 9 18.5 10 18.5 11.5C18.5 13 17.5 14 16 14C14.5 14 13.5 13 13.5 11.5C13.5 10 14.5 9 16 9Z" fill="#F5F5F0"/>
  <path d="M16 18C17.5 18 18.5 19 18.5 20.5C18.5 22 17.5 23 16 23C14.5 23 13.5 22 13.5 20.5C13.5 19 14.5 18 16 18Z" fill="#F5F5F0"/>
  <path d="M9 16C9 17.5 10 18.5 11.5 18.5C13 18.5 14 17.5 14 16C14 14.5 13 13.5 11.5 13.5C10 13.5 9 14.5 9 16Z" fill="#F5F5F0"/>
  <path d="M18 16C18 17.5 19 18.5 20.5 18.5C22 18.5 23 17.5 23 16C23 14.5 22 13.5 20.5 13.5C19 13.5 18 14.5 18 16Z" fill="#F5F5F0"/>
  
  <!-- Flower center -->
  <circle cx="16" cy="16" r="4" fill="#FFD700"/>
  <circle cx="16" cy="16" r="2" fill="#FFA500"/>
  
  <!-- Small accent dots -->
  <circle cx="16" cy="4" r="0.8" fill="#E2E5DA"/>
  <circle cx="16" cy="28" r="0.8" fill="#E2E5DA"/>
  <circle cx="4" cy="16" r="0.8" fill="#E2E5DA"/>
  <circle cx="28" cy="16" r="0.8" fill="#E2E5DA"/>
</svg> 